<?xml version="1.0" encoding="utf-8"?>
<!-- Generator: Adobe Illustrator 19.2.0, SVG Export Plug-In . SVG Version: 6.00 Build 0)  -->
<svg version="1.1" id="Layer_1" xmlns="http://www.w3.org/2000/svg" xmlns:xlink="http://www.w3.org/1999/xlink" x="0px" y="0px"
	 viewBox="0 0 130.4 50.5" style="enable-background:new 0 0 130.4 50.5;" xml:space="preserve">
<style type="text/css">
	.st0{fill-rule:evenodd;clip-rule:evenodd;fill:#FFFFFF;}
</style>
<path class="st0" d="M43.3,6.2h2.4h0.2v0.2v24.4h6.4h0.2v0.2v0.6v0.2h-0.2h-6.6h-2.4h-0.2v-0.2v-0.6V6.4V6.2H43.3L43.3,6.2z
	 M64.4,23.1h5.5l-3.2-12.3l-5.4,20.9h-0.1h-0.7h-0.2c2.4-9.3,4.7-18.5,7.2-27.8l0.3,0l7.2,27.8h-0.2h-2.5h-0.1l-2-7.7h-5.7h-0.2
	v-0.2v-0.6v-0.2H64.4L64.4,23.1z"/>
<path class="st0" d="M1.7,16.7c-0.2-0.5-0.4-0.9-0.5-1.3C1,15,0.8,14.6,0.7,14.1c-0.1-0.2-0.1-0.4-0.2-0.6C-0.3,10.4-0.2,7.4,0.9,5
	c1.2-2.8,4.1-4.3,6.9-5l0,0c-4,1.9-5.5,4.8-5.4,7.7c0.1,2.9,1.5,5.9,2.7,8.4l0,0l0,0c0.2,0.3,0.3,0.7,0.5,1.1
	c0.5,1.1,1.1,2.2,1.5,3.3c0.2,0.4,0.4,0.9,0.5,1.3C7.8,22.1,8,22.6,8.1,23c0.1,0.2,0.1,0.4,0.2,0.6C9.1,26.8,9,29.7,8,32.1
	c-1.2,2.8-4.1,4.3-6.9,5l0,0c4-1.9,5.5-4.8,5.4-7.7c-0.1-2.9-1.5-5.9-2.7-8.4l0,0l0,0c-0.2-0.3-0.3-0.7-0.5-1.1
	C2.7,19,2.1,17.9,1.7,16.7L1.7,16.7L1.7,16.7z"/>
<path class="st0" d="M123.3,16.7c-0.2-0.5-0.4-0.9-0.5-1.3c-0.2-0.4-0.3-0.9-0.4-1.3c-0.1-0.2-0.1-0.4-0.2-0.6
	c-0.8-3.2-0.8-6.2,0.3-8.5c1.2-2.8,4.1-4.3,6.9-5l0,0c-4,1.9-5.5,4.8-5.4,7.7c0.1,2.9,1.5,5.9,2.7,8.4v0l0,0
	c0.2,0.3,0.3,0.7,0.5,1.1c0.5,1.1,1.1,2.2,1.5,3.3c0.2,0.4,0.4,0.9,0.5,1.3c0.2,0.4,0.3,0.9,0.4,1.3c0.1,0.2,0.1,0.4,0.2,0.6
	c0.8,3.2,0.8,6.2-0.3,8.5c-1.2,2.8-4.1,4.3-6.9,5l0,0c4-1.9,5.5-4.8,5.4-7.7c-0.1-2.9-1.5-5.9-2.7-8.4l0,0l0,0
	c-0.2-0.3-0.3-0.7-0.5-1.1C124.3,19,123.8,17.9,123.3,16.7L123.3,16.7L123.3,16.7z"/>
<polygon class="st0" points="108.3,6.2 110.7,6.2 110.9,6.2 110.9,6.4 110.9,31.5 110.9,31.7 110.7,31.7 108.3,31.7 108.1,31.7 
	108.1,31.5 108.1,6.4 108.1,6.2 108.3,6.2 "/>
<path class="st0" d="M24.5,31.9c-0.8-0.2-1.6-0.5-2.2-1c-0.7-0.5-1.3-1.1-1.8-1.8c-0.5-0.7-0.9-1.5-1.3-2.5c-0.9-2.3-1.4-5-1.4-7.7
	v0v0v0v0c0-1.1,0.1-2.2,0.2-3.2c0.1-0.8,0.2-1.5,0.4-2.3c0.2-0.7,0.4-1.4,0.7-2.1C20.2,8.6,22,6.5,24.5,6l0,0c0.1,0,0.3,0,0.4-0.1
	c0.1,0,0.3,0,0.4,0c0.7-0.1,1.5,0,2.2,0.1c0.7,0.1,1.4,0.4,2.1,0.9c0.6,0.4,1.2,0.9,1.7,1.6c0.5,0.6,0.9,1.3,1.3,2.1
	c1.1,2.4,1.6,5.4,1.6,8.4v0l0,0l0,0v0c0,1-0.1,2-0.2,3c-0.1,0.8-0.2,1.5-0.4,2.3c-0.2,0.7-0.4,1.4-0.6,2.1c-1.1,2.9-2.9,5.1-5.4,5.6
	l0,0c-0.3,0.1-0.6,0.1-1,0.1c-0.1,0-0.2,0-0.3,0h0C25.5,32.1,25,32,24.5,31.9L24.5,31.9z M21.1,19L21.1,19L21.1,19v0.1
	c0,0.3,0,0.5,0,0.8c0,0.6,0,1.2,0.1,1.8c0,0.6,0.1,1.2,0.2,1.8c0.4,2.8,1.1,5.3,2.2,6.7c0.1,0.1,0.2,0.3,0.4,0.4
	c0.6,0.5,1.2,0.7,1.9,0.7c0.7,0,1.4-0.2,1.9-0.7c0.1-0.1,0.3-0.2,0.4-0.4c0.1-0.1,0.2-0.3,0.3-0.4c0.2-0.3,0.4-0.7,0.6-1.1
	c0.2-0.4,0.4-0.9,0.5-1.3c0.7-2.3,1.1-5.4,1.1-8.4h0v0v0h0c0-0.3,0-0.6,0-0.8c0-0.6,0-1.2-0.1-1.8c0-0.6-0.1-1.2-0.2-1.8v0
	c-0.4-2.8-1.1-5.4-2.2-6.7v0c-0.1-0.1-0.2-0.3-0.4-0.4c-0.6-0.5-1.2-0.7-1.9-0.7c-0.7,0-1.4,0.2-1.9,0.7h0c-0.1,0.1-0.3,0.2-0.4,0.4
	c-0.1,0.1-0.2,0.3-0.3,0.4c-0.2,0.3-0.4,0.7-0.6,1.1c-0.2,0.4-0.3,0.9-0.5,1.3C21.5,12.9,21.1,16,21.1,19L21.1,19L21.1,19L21.1,19z"
	/>
<path class="st0" d="M83.3,6.2h2.4h0h0h0h0l0,0l0.4,0c0.3,0,0.6,0,0.8,0h0l0,0h0c3,0.1,5,1.5,6.2,3.4c0.6,1,1,2.2,1.1,3.3
	c0.1,1.2-0.1,2.4-0.5,3.5c-0.8,1.9-2.4,3.5-4.8,4.2c0.1,0.1,0.2,0.1,0.3,0.2c0.2,0.2,0.5,0.5,0.7,0.8v0l0,0l0,0c0.7,1,1.3,2.1,2,3.2
	c2.1,3.5,4.3,7.4,7.5,8.4l0,0c-5.3,0.5-8.1-3.7-10.6-7.8c-0.5-0.8-1-1.7-1.5-2.4l0,0l-0.1-0.1c-0.4-0.6-1-1.6-1.4-1.9v10.5v0.2h-0.2
	h-2.4h-0.2v-0.2V6.4V6.2H83.3L83.3,6.2z M85.9,7.1v13c0.1,0,0.1,0,0.2,0c0.1,0,0.3,0,0.4,0c2.1,0,3.5-1.7,4.1-3.8
	c0.2-0.9,0.4-1.8,0.4-2.7c0-1.3-0.2-2.6-0.7-3.7c-0.7-1.6-2-2.8-3.7-2.8v0c-0.1,0-0.3,0-0.4,0C86,7.1,86,7.1,85.9,7.1L85.9,7.1z"/>
<path class="st0" d="M65.2,37.8c-19.4,0-37,2.2-49.3,5.8c13.1-2.8,30.4-4.4,49.3-4.4s36.2,1.7,49.3,4.4
	C102.2,40,84.6,37.8,65.2,37.8L65.2,37.8z"/>
<path class="st0" d="M39.3,47.5L39.3,47.5L39.3,47.5c0.1,0,0.2,0,0.2,0l0,0c0.1,0,0.1,0,0.2,0l0,0l0.1,0v0l0.1,0
	c0.1,0,0.2,0,0.2-0.1h0l0,0v0c0,0,0,0,0,0c0,0,0,0,0,0l0,0c0.1,0,0.1-0.1,0.1-0.2h0l0,0l0,0c0,0,0,0,0,0l0,0c0,0,0,0,0,0v0
	c0-0.1,0-0.2,0-0.3v0h0c0-0.1,0-0.1,0-0.2l0,0l0,0c0,0,0-0.1-0.1-0.1c-0.1-0.1-0.1-0.2-0.2-0.2c0,0-0.1-0.1-0.1-0.1l0,0
	c-0.1,0-0.1,0-0.2-0.1v0c-0.1,0-0.1,0-0.2,0c-0.1,0-0.1,0-0.2,0h-2.2v1.6H39.3L39.3,47.5z M41,50.4h-0.7h-0.1l0-0.1l-1.1-2h-1.8v2
	v0.1h-0.1h-0.6h-0.1v-0.1v-5v-0.1h0.1h2.5c0.1,0,0.3,0,0.4,0h0c0.2,0,0.3,0,0.5,0.1h0c0.1,0,0.2,0,0.2,0.1h0c0.1,0,0.1,0.1,0.2,0.1
	h0l0,0c0,0,0,0,0.1,0l0,0l0.1,0l0,0c0.1,0.1,0.2,0.1,0.3,0.2l0,0l0,0c0,0,0,0,0,0.1c0,0,0,0,0,0.1c0.1,0.1,0.1,0.2,0.2,0.3h0
	c0,0.1,0.1,0.2,0.1,0.3v0c0,0.1,0,0.2,0,0.3c0,0.1,0,0.3,0,0.4c0,0.1-0.1,0.2-0.1,0.3c-0.1,0.2-0.2,0.4-0.3,0.5l0,0l0,0
	c0,0,0,0-0.1,0.1l-0.1,0l0,0c-0.1,0.1-0.2,0.1-0.3,0.2c-0.1,0-0.2,0.1-0.2,0.1c0,0-0.1,0-0.1,0l1.1,2l0.1,0.1H41L41,50.4z
	 M51.6,50.4h-4.3h-0.1v-0.1v-5v-0.1h0.1h4.1h0.1v0.1v0.6V46h-0.1H48v1.3h1.8h0.1v0.1V48v0.1h-0.1H48v1.5h3.6h0.1v0.1v0.6v0.1H51.6
	L51.6,50.4z M60.1,47.2c0.1,0,0.2,0,0.4,0h0c0.1,0,0.2,0,0.4,0.1l0,0h0c0,0,0.1,0,0.1,0c0,0,0.1,0,0.1,0c0.2,0,0.3,0.1,0.4,0.2h0
	c0.2,0.1,0.3,0.3,0.5,0.5v0c0.1,0.1,0.1,0.2,0.1,0.3c0,0.1,0,0.3,0,0.4v0h0c0,0.1,0,0.3-0.1,0.4c0,0,0,0.1,0,0.1
	c0,0.1-0.1,0.2-0.1,0.2h0c-0.1,0.1-0.2,0.2-0.2,0.3c-0.1,0.1-0.2,0.2-0.3,0.2l0,0l0,0l0,0c0,0-0.1,0-0.1,0.1c0,0-0.1,0-0.1,0.1v0
	c-0.2,0.1-0.4,0.1-0.6,0.2c-0.1,0-0.3,0.1-0.5,0.1c-0.2,0-0.3,0-0.5,0c-0.4,0-0.7,0-1-0.1h0l0,0v0c0,0-0.1,0-0.1,0l0,0l-0.1,0l0,0
	c-0.2-0.1-0.4-0.1-0.5-0.2c-0.1-0.1-0.2-0.1-0.3-0.2c-0.1-0.1-0.2-0.1-0.2-0.2c-0.1-0.1-0.2-0.2-0.3-0.3l-0.1-0.1l0.1-0.1l0.4-0.4
	l0.1-0.1l0.1,0.1l0,0l0,0l0,0l0,0l0,0h0c0.1,0.1,0.1,0.1,0.2,0.2l0,0l0,0c0.1,0.1,0.2,0.1,0.3,0.2c0.1,0,0.2,0.1,0.3,0.1
	c0.1,0,0.2,0.1,0.3,0.1c0.2,0.1,0.5,0.1,0.8,0.1v0c0.1,0,0.3,0,0.4,0h0c0.1,0,0.2,0,0.3-0.1l0,0c0,0,0.1,0,0.1,0h0c0,0,0.1,0,0.1,0
	c0.1,0,0.3-0.1,0.4-0.2h0c0.1,0,0.1-0.1,0.2-0.1l0,0c0.1,0,0.1-0.1,0.1-0.2c0.1-0.1,0.1-0.2,0.1-0.3c0-0.1,0-0.1,0-0.2
	c0-0.1,0-0.1-0.1-0.2v0l0,0l0,0l0,0l0,0l0,0c-0.1-0.1-0.1-0.1-0.2-0.2l0,0l0,0l0,0l0,0v0c-0.1,0-0.2-0.1-0.2-0.1l0,0
	c0,0-0.1,0-0.1,0c0,0-0.1,0-0.1,0c-0.1,0-0.1,0-0.2,0h-1.1c-0.2,0-0.5,0-0.7-0.1c-0.1,0-0.2-0.1-0.3-0.1v0c-0.1,0-0.2-0.1-0.3-0.1
	c-0.1-0.1-0.2-0.1-0.2-0.2l0,0c-0.1-0.1-0.1-0.1-0.2-0.2h0l0,0v0c0,0,0-0.1-0.1-0.1h0c0,0,0-0.1,0-0.2v0c0-0.1,0-0.2,0-0.3
	c0-0.2,0-0.4,0.1-0.6c0-0.1,0.1-0.2,0.2-0.3c0.1-0.1,0.1-0.2,0.2-0.2c0.1-0.1,0.2-0.1,0.3-0.2c0.1-0.1,0.2-0.1,0.4-0.2h0l0,0l0,0
	c0,0,0.1,0,0.1,0c0,0,0.1,0,0.1,0c0.2,0,0.5-0.1,0.8-0.1c0.1,0,0.3,0,0.4,0c0.1,0,0.3,0,0.4,0.1l0,0l0,0l0.1,0l0,0l0.1,0l0,0
	c0.2,0,0.3,0.1,0.4,0.2h0c0.1,0,0.2,0.1,0.2,0.1c0.1,0,0.1,0.1,0.2,0.1l0,0l0,0l0,0l0,0l0.2,0.1l0.1,0.1L61.8,46l-0.4,0.5l-0.1,0.1
	l-0.1,0L61,46.3h0c-0.1,0-0.1-0.1-0.2-0.1c-0.1,0-0.1-0.1-0.2-0.1l0,0l0,0l-0.1,0l-0.1,0l0,0c-0.1,0-0.2-0.1-0.3-0.1v0
	c-0.1,0-0.2,0-0.3,0c-0.1,0-0.2,0-0.3,0v0c-0.1,0-0.3,0-0.4,0c-0.1,0-0.2,0-0.3,0.1c-0.2,0.1-0.3,0.1-0.5,0.2l0,0l0,0l0,0
	c0,0,0,0,0,0h0c-0.1,0.1-0.1,0.1-0.2,0.2c0,0,0,0.1-0.1,0.1c0,0,0,0.1,0,0.1c0,0.1,0,0.2,0.1,0.3l0,0l0,0c0,0,0,0,0,0l0,0
	c0.1,0,0.1,0.1,0.2,0.1l0,0v0l0.1,0v0l0.1,0c0.1,0,0.2,0,0.3,0l0.1,0l0.1,0l0.1,0c0.1,0,0.2,0,0.3,0H60.1L60.1,47.2z M60.6,46
	L60.6,46L60.6,46L60.6,46z M68.4,47.8c0,0.3,0.1,0.5,0.2,0.7l0,0l0,0c0,0,0,0.1,0,0.1c0,0,0,0.1,0,0.1c0.1,0.2,0.2,0.3,0.3,0.4
	c0.1,0.1,0.2,0.2,0.3,0.2c0.1,0.1,0.2,0.1,0.3,0.2c0.2,0.1,0.5,0.2,0.8,0.2c0.3,0,0.6-0.1,0.8-0.2c0.1-0.1,0.2-0.1,0.3-0.2
	c0.1-0.1,0.2-0.1,0.3-0.2h0l0,0l0,0c0,0,0.1-0.1,0.1-0.1c0,0,0,0,0.1-0.1c0.1-0.1,0.2-0.3,0.3-0.5c0.1-0.1,0.1-0.2,0.1-0.4
	c0-0.1,0-0.3,0-0.4c0-0.3-0.1-0.5-0.2-0.7l0,0l0,0l0,0c0,0,0-0.1,0-0.1c0,0,0-0.1,0-0.1c-0.1-0.2-0.2-0.3-0.3-0.4
	c-0.1-0.1-0.2-0.2-0.3-0.2c-0.1-0.1-0.2-0.1-0.3-0.2c-0.1-0.1-0.3-0.1-0.4-0.1c-0.1,0-0.3,0-0.4,0c-0.3,0-0.6,0.1-0.8,0.2
	c-0.1,0.1-0.2,0.1-0.3,0.2h0c-0.1,0.1-0.2,0.1-0.3,0.2l0,0l0,0h0c0,0,0,0-0.1,0.1c0,0,0,0.1-0.1,0.1l0,0c-0.1,0.1-0.2,0.3-0.3,0.5
	c-0.1,0.1-0.1,0.2-0.1,0.4C68.4,47.5,68.4,47.6,68.4,47.8L68.4,47.8z M67.6,47.8c0-0.4,0.1-0.7,0.2-1h0l0,0v0c0,0,0-0.1,0.1-0.1
	c0,0,0-0.1,0.1-0.1c0.1-0.2,0.3-0.4,0.5-0.6c0.1-0.1,0.3-0.2,0.4-0.3c0.1-0.1,0.3-0.2,0.5-0.3l0,0c0,0,0.1,0,0.1-0.1
	c0,0,0.1,0,0.1,0c0.3-0.1,0.5-0.1,0.8-0.1v0c0.2,0,0.4,0,0.6,0.1c0.2,0,0.4,0.1,0.5,0.2c0.2,0.1,0.3,0.2,0.5,0.3
	c0.1,0.1,0.3,0.2,0.4,0.3l0,0l0,0l0,0c0,0,0.1,0.1,0.1,0.1h0c0,0,0.1,0.1,0.1,0.1c0.2,0.2,0.3,0.4,0.4,0.6h0
	c0.1,0.2,0.1,0.3,0.2,0.5v0c0,0.2,0.1,0.4,0.1,0.5c0,0.4-0.1,0.7-0.2,1h0l0,0v0c0,0,0,0.1-0.1,0.1c0,0,0,0.1-0.1,0.1
	c-0.1,0.2-0.3,0.4-0.5,0.6c-0.3,0.2-0.5,0.4-0.9,0.6c-0.2,0.1-0.4,0.1-0.5,0.2c-0.2,0-0.4,0.1-0.6,0.1v0c-0.2,0-0.4,0-0.6-0.1
	c-0.2,0-0.4-0.1-0.5-0.2c-0.3-0.1-0.6-0.3-0.9-0.6h0l0,0l0,0c0,0-0.1-0.1-0.1-0.1h0c0,0-0.1-0.1-0.1-0.1c-0.2-0.2-0.3-0.4-0.4-0.6h0
	C67.7,48.5,67.6,48.1,67.6,47.8L67.6,47.8z M82.2,47.5L82.2,47.5L82.2,47.5c0.1,0,0.2,0,0.2,0l0,0c0.1,0,0.1,0,0.2,0l0,0l0.1,0v0
	l0.1,0c0.1,0,0.2,0,0.2-0.1h0l0,0v0c0,0,0,0,0,0c0,0,0,0,0,0l0,0c0.1,0,0.1-0.1,0.1-0.2h0l0,0h0c0,0,0,0,0,0l0,0c0,0,0,0,0,0v0
	c0-0.1,0-0.2,0-0.3v0h0c0-0.1,0-0.1,0-0.2l0,0l0,0c0,0,0-0.1-0.1-0.1c-0.1-0.1-0.1-0.2-0.2-0.2c0,0-0.1-0.1-0.1-0.1l0,0
	c-0.1,0-0.1,0-0.2-0.1v0c-0.1,0-0.1,0-0.2,0c-0.1,0-0.1,0-0.2,0h-2.2v1.6H82.2L82.2,47.5z M83.8,50.4h-0.7h-0.1l0-0.1l-1.1-2h-1.8v2
	v0.1H80h-0.6h-0.1v-0.1v-5v-0.1h0.1h2.5c0.1,0,0.3,0,0.4,0h0c0.2,0,0.3,0,0.5,0.1h0c0.1,0,0.2,0,0.2,0.1h0c0.1,0,0.1,0.1,0.2,0.1h0
	l0,0c0,0,0,0,0.1,0l0,0l0.1,0l0,0c0.1,0.1,0.2,0.1,0.3,0.2l0,0l0,0c0,0,0,0,0,0.1c0,0,0,0,0,0.1c0.1,0.1,0.1,0.2,0.2,0.3h0
	c0,0.1,0.1,0.2,0.1,0.3v0c0,0.1,0,0.2,0,0.3c0,0.1,0,0.3,0,0.4c0,0.1-0.1,0.2-0.1,0.3c-0.1,0.2-0.2,0.4-0.3,0.5l0,0l0,0
	c0,0,0,0-0.1,0.1l-0.1,0l0,0c-0.1,0.1-0.2,0.1-0.3,0.2c-0.1,0-0.2,0.1-0.2,0.1c0,0-0.1,0-0.1,0l1.1,2l0.1,0.1H83.8L83.8,50.4z
	 M92.1,50.4h-0.6h-0.1v-0.1V46h-1.7h-0.1v-0.1v-0.6v-0.1h0.1h4.3H94v0.1v0.6V46h-0.1h-1.7v4.3v0.1H92.1L92.1,50.4z"/>
</svg>
